<svg width="55" height="62" viewBox="0 0 55 62" fill="none" xmlns="http://www.w3.org/2000/svg">
<path d="M12.875 41.277L17.0907 39.0594C20.6546 37.1839 23.2034 33.8187 24.0514 29.876L25.0496 25.2466C25.3646 23.7691 27.0993 23.1237 28.301 24.0311L28.5506 24.2203C30.593 25.7586 31.8795 28.0999 32.0879 30.65C32.1073 30.8926 32.1194 31.1352 32.1194 31.3778C32.1194 32.7341 31.8093 34.0807 31.2084 35.3084L29.6602 38.4819H39.5574C41.1104 38.4819 42.3679 39.7412 42.3679 41.2964C42.3679 42.8517 41.1104 44.1109 39.5574 44.1109L38.7022 44.106" stroke="black" stroke-width="1.25" stroke-linecap="round" stroke-linejoin="round"/>
<path d="M37.1416 44.1055H40.0369C41.5899 44.1055 42.8473 45.3647 42.8473 46.9199C42.8473 48.4752 41.5899 49.7344 40.0369 49.7344H37.1416" stroke="black" stroke-width="1.25" stroke-linecap="round" stroke-linejoin="round"/>
<path d="M39.858 49.7324L39.2693 49.7373C40.8223 49.7373 42.0797 50.9965 42.0797 52.5517C42.0797 54.107 40.8223 55.3662 39.2693 55.3662H36.374" stroke="black" stroke-width="1.25" stroke-linecap="round" stroke-linejoin="round"/>
<path d="M35.6354 55.3613L36.5803 55.3662C38.1357 55.3662 39.3956 56.6278 39.3956 58.1807C39.3956 58.9571 39.0806 59.6655 38.5694 60.1726C38.063 60.6846 37.3604 61 36.5803 61H32.0109C25.7673 61 19.5576 60.061 13.5878 58.2243L12.8779 58.006" stroke="black" stroke-width="1.25" stroke-linecap="round" stroke-linejoin="round"/>
<path d="M11.4142 38.1494H5.76662C4.95976 38.1494 4.30566 38.8044 4.30566 39.6125V59.5127C4.30566 60.3207 4.95976 60.9758 5.76662 60.9758H11.4142C12.2211 60.9758 12.8751 60.3207 12.8751 59.5127V39.6125C12.8751 38.8044 12.2211 38.1494 11.4142 38.1494Z" stroke="black" stroke-width="1.25" stroke-linecap="round" stroke-linejoin="round"/>
<path d="M28.0706 1.35484L30.5249 6.33597C30.617 6.5228 30.7963 6.65382 31.0046 6.68536L36.4947 7.4836C37.0156 7.55881 37.224 8.20178 36.846 8.57057L32.8751 12.4477C32.7248 12.5933 32.657 12.8044 32.6933 13.0106L33.631 18.4867C33.7206 19.006 33.1755 19.4039 32.7079 19.1588L27.7968 16.5748C27.6127 16.4778 27.3898 16.4778 27.2057 16.5748L22.2946 19.1588C21.827 19.4039 21.2819 19.0084 21.3716 18.4867L22.3092 13.0106C22.3455 12.8044 22.2753 12.5933 22.125 12.4477L18.1541 8.57057C17.7761 8.20178 17.9845 7.56124 18.5054 7.4836L23.9955 6.68536C24.2014 6.65624 24.3807 6.52522 24.4752 6.33597L26.9295 1.35484C27.1621 0.881719 27.838 0.881719 28.0706 1.35484Z" fill="#FFE2D6" stroke="#FF6E30" stroke-width="1.25" stroke-linecap="round" stroke-linejoin="round"/>
<path d="M46.3921 8.50728L48.4733 12.7314C48.5508 12.8916 48.7035 13.0007 48.8803 13.0274L53.537 13.7044C53.9804 13.7699 54.1572 14.3133 53.835 14.6263L50.4649 17.9139C50.3389 18.0377 50.2807 18.2172 50.3098 18.3919L51.1045 23.0358C51.1796 23.4774 50.7168 23.8146 50.3219 23.606L46.1571 21.4126C45.9996 21.3301 45.8131 21.3301 45.6556 21.4126L41.4908 23.606C41.0959 23.8146 40.6331 23.4774 40.7082 23.0358L41.5029 18.3919C41.532 18.2172 41.4738 18.0377 41.3478 17.9139L37.9777 14.6263C37.6579 14.3133 37.8348 13.7699 38.2757 13.7044L42.9323 13.0274C43.1092 13.0007 43.2594 12.8916 43.3394 12.7314L45.4206 8.50728C45.6192 8.10695 46.191 8.10695 46.3873 8.50728H46.3921Z" fill="#FFE2D6" stroke="#FF6E30" stroke-width="1.25" stroke-linecap="round" stroke-linejoin="round"/>
<path d="M9.57766 8.50728L11.6589 12.7314C11.7364 12.8916 11.889 13.0007 12.0659 13.0274L16.7225 13.7044C17.1659 13.7699 17.3428 14.3133 17.0205 14.6263L13.6504 17.9139C13.5244 18.0377 13.4663 18.2172 13.4953 18.3919L14.29 23.0358C14.3651 23.4774 13.9024 23.8146 13.5075 23.606L9.34265 21.4126C9.18517 21.3301 8.99861 21.3301 8.84113 21.4126L4.67632 23.606C4.2814 23.8146 3.81865 23.4774 3.89375 23.0358L4.68843 18.3919C4.71751 18.2172 4.65936 18.0377 4.53337 17.9139L1.16325 14.6263C0.843435 14.3133 1.0203 13.7699 1.46125 13.7044L6.11789 13.0274C6.29476 13.0007 6.44497 12.8916 6.52492 12.7314L8.60612 8.50728C8.80479 8.10695 9.37657 8.10695 9.57282 8.50728H9.57766Z" fill="#FFE2D6" stroke="#FF6E30" stroke-width="1.25" stroke-linecap="round" stroke-linejoin="round"/>
</svg>
