<svg width="51" height="62" viewBox="0 0 51 62" fill="none" xmlns="http://www.w3.org/2000/svg">
<path d="M29.3705 47.373C28.1322 48.5382 26.9288 50.1785 25.4987 50.1785C24.0686 50.1785 22.8652 48.5407 21.627 47.373" stroke="black" stroke-width="1.5" stroke-linecap="round" stroke-linejoin="round"/>
<path d="M9.56074 40.1765C7.86653 39.3714 5.1234 39.3514 4.27879 37.8861C3.28718 36.1659 5.39249 33.1028 4.86927 31.1375C4.3635 29.2372 1 27.6469 1 25.5891C1 23.5313 4.3635 21.9385 4.86927 20.0382C5.39249 18.0728 3.28718 15.0123 4.27879 13.2895C5.28535 11.5443 8.9877 11.8493 10.4004 10.4341C11.813 9.01634 11.5066 5.30072 13.2456 4.29055C14.9598 3.29538 18.0118 5.40823 19.9702 4.88315C21.8637 4.37556 23.4483 1 25.4988 1C27.5492 1 29.1363 4.37556 31.0298 4.88315C32.9882 5.40823 36.0377 3.29538 37.7544 4.29055C39.4934 5.30072 39.1895 9.01634 40.5996 10.4341C42.0123 11.8518 45.7147 11.5443 46.7212 13.2895C47.7128 15.0098 45.6075 18.0728 46.1307 20.0382C46.6365 21.9385 50 23.5288 50 25.5866C50 27.6444 46.6365 29.2372 46.1307 31.1375C45.6075 33.1028 47.7128 36.1634 46.7212 37.8861C45.8766 39.3514 43.136 39.3714 41.4393 40.1765" stroke="black" stroke-width="1.5" stroke-linecap="round" stroke-linejoin="round"/>
<path d="M23.0097 40.9544L11.4741 61.0002L9.28161 55.0167L3.02051 56.1019L14.3493 36.4111" stroke="black" stroke-width="1.5" stroke-linecap="round" stroke-linejoin="round"/>
<path d="M36.6506 36.4111L47.9794 56.1019L41.7183 55.0167L39.5258 61.0002L27.9902 40.9544" stroke="black" stroke-width="1.5" stroke-linecap="round" stroke-linejoin="round"/>
<path d="M25.4987 41.1517C34.0644 41.1517 41.0082 34.1829 41.0082 25.5866C41.0082 16.9902 34.0644 10.0215 25.4987 10.0215C16.9331 10.0215 9.98926 16.9902 9.98926 25.5866C9.98926 34.1829 16.9331 41.1517 25.4987 41.1517Z" fill="#FFE2D6" stroke="#FF6E30" stroke-width="1.5" stroke-linecap="round" stroke-linejoin="round"/>
<path d="M18.2285 26.0794L23.9415 31.6078L32.7688 18.7832" stroke="#FF6E30" stroke-width="1.5" stroke-linecap="round" stroke-linejoin="round"/>
</svg>
