<svg width="71" height="44" viewBox="0 0 71 44" fill="none" xmlns="http://www.w3.org/2000/svg">
<path d="M49 3.08291V36H12V1H46.5811C47.9164 1 49 1.93314 49 3.08291Z" fill="#FFE2D6"/>
<path d="M13.3828 25.8711H26.1816" stroke="black" stroke-width="1.25" stroke-linecap="round" stroke-linejoin="round"/>
<path d="M60.0927 15.8857H52.8184" stroke="black" stroke-width="1.25" stroke-linecap="round" stroke-linejoin="round"/>
<path d="M49.6406 11.9609H58.1321C59.0697 11.9609 59.9193 12.5024 60.3155 13.352C61.8144 16.572 65.3998 24.2645 65.4526 24.2359L69.7006 26.5492C69.8854 26.6504 69.9999 26.8441 69.9999 27.0532V35.8418C69.9999 36.1279 69.7688 36.359 69.4827 36.359H67.4999" stroke="black" stroke-width="1.25" stroke-linecap="round" stroke-linejoin="round"/>
<path d="M64.4507 24.2363H52.704L52.6313 15.8857" stroke="black" stroke-width="1.25" stroke-linecap="round" stroke-linejoin="round"/>
<path d="M65.3285 37.5942C66.0112 34.7016 64.2197 31.8032 61.3271 31.1205C58.4345 30.4377 55.5361 32.2292 54.8534 35.1218C54.1706 38.0144 55.9621 40.9128 58.8547 41.5955C61.7473 42.2783 64.6457 40.4868 65.3285 37.5942Z" stroke="black" stroke-width="1.25" stroke-linecap="round" stroke-linejoin="round"/>
<path d="M22.9905 41.3325C25.7364 40.1951 27.0403 37.0471 25.9029 34.3013C24.7655 31.5554 21.6176 30.2515 18.8717 31.3889C16.1259 32.5262 14.8219 35.6742 15.9593 38.4201C17.0967 41.1659 20.2446 42.4698 22.9905 41.3325Z" fill="#F4F4F4" stroke="black" stroke-width="1.25" stroke-linecap="round" stroke-linejoin="round"/>
<path d="M49 36V3.08291C49 1.93314 48.1288 1 47.0554 1H12L12 5L12 17.75L12 30.5L12 36" stroke="#FF6E30" stroke-width="1.25" stroke-linecap="round" stroke-linejoin="round"/>
<path d="M13.5 36.3604H10" stroke="black" stroke-width="1.25" stroke-linecap="round"/>
<path d="M28.1958 36.3613H48.6409H52.6313" stroke="black" stroke-width="1.25" stroke-linecap="round" stroke-linejoin="round"/>
<path d="M4.51367 8.78809H17.3125" stroke="black" stroke-width="1.25" stroke-linecap="round" stroke-linejoin="round"/>
<path d="M20.6416 13.8164H29.1199" stroke="black" stroke-width="1.25" stroke-linecap="round" stroke-linejoin="round"/>
<path d="M14.1201 13.8164H16.2793" stroke="black" stroke-width="1.25" stroke-linecap="round" stroke-linejoin="round"/>
<path d="M1 19.8428H3.15918" stroke="black" stroke-width="1.25" stroke-linecap="round" stroke-linejoin="round"/>
<path d="M7.35449 25.8711H9.51368" stroke="black" stroke-width="1.25" stroke-linecap="round" stroke-linejoin="round"/>
<path d="M6.74023 19.8428H19.5391" stroke="black" stroke-width="1.25" stroke-linecap="round" stroke-linejoin="round"/>
</svg>
